0
SECTION
2
HEADER
9
$EXTMAX
10
119.950000
20
35.000000
9
$EXTMIN
10
-119.949999
20
-35.000000
0
ENDSEC
0
SECTION
2
TABLES
0
TABLE
2
LAYER
70
2
0
LAYER
2
Plan
70
0
62
253
6
CONTINUOUS
0
LAYER
2
Docu
70
0
62
11
6
CONTINUOUS
0
ENDTAB
0
ENDSEC
0
SECTION
2
ENTITIES
0
TEXT
8
Docu
50
0.000
10
103.100001
20
26.140000
40
1.000000
1
M3-SenkBohrung (A)
0
LINE
8
Docu
10
103.100001
20
23.040000
11
103.100001
21
29.240000
0
LINE
8
Docu
10
100.000001
20
26.140000
11
106.200001
21
26.140000
0
CIRCLE
8
Plan
10
103.100001
20
26.140000
40
1.550000
0
CIRCLE
8
Plan
10
103.100001
20
26.140000
40
3.000000
0
TEXT
8
Docu
50
0.000
10
103.100001
20
-26.140000
40
1.000000
1
M3-SenkBohrung (A)
0
LINE
8
Docu
10
103.100001
20
-29.240000
11
103.100001
21
-23.040000
0
LINE
8
Docu
10
100.000001
20
-26.140000
11
106.200001
21
-26.140000
0
CIRCLE
8
Plan
10
103.100001
20
-26.140000
40
1.550000
0
CIRCLE
8
Plan
10
103.100001
20
-26.140000
40
3.000000
0
TEXT
8
Docu
50
0.000
10
-103.099999
20
-26.140000
40
1.000000
1
M3-SenkBohrung (A)
0
LINE
8
Docu
10
-103.099999
20
-29.240000
11
-103.099999
21
-23.040000
0
LINE
8
Docu
10
-106.199999
20
-26.140000
11
-99.999999
21
-26.140000
0
CIRCLE
8
Plan
10
-103.099999
20
-26.140000
40
1.550000
0
CIRCLE
8
Plan
10
-103.099999
20
-26.140000
40
3.000000
0
TEXT
8
Docu
50
0.000
10
-103.099999
20
26.140000
40
1.000000
1
M3-SenkBohrung (A)
0
LINE
8
Docu
10
-103.099999
20
23.040000
11
-103.099999
21
29.240000
0
LINE
8
Docu
10
-106.199999
20
26.140000
11
-99.999999
21
26.140000
0
CIRCLE
8
Plan
10
-103.099999
20
26.140000
40
1.550000
0
CIRCLE
8
Plan
10
-103.099999
20
26.140000
40
3.000000
0
TEXT
8
Docu
50
0.000
10
-51.000000
20
0.000000
40
1.000000
1
Ausbruch
0
TEXT
8
Docu
50
0.000
10
-51.000000
20
-1.200000
40
1.000000
1
Front
0
LINE
8
Docu
10
-51.000000
20
22.032000
11
-51.000000
21
-22.032000
0
LINE
8
Docu
10
-28.968000
20
0.000000
11
-73.032000
21
0.000000
0
LINE
8
Plan
10
-86.720000
20
-24.480000
11
-15.280000
21
-24.480000
0
ARC
8
Plan
10
-15.280000
20
-23.480000
40
1.000000
50
270.000
51
0.000
0
LINE
8
Plan
10
-14.280000
20
-23.480000
11
-14.280000
21
23.480000
0
ARC
8
Plan
10
-15.280000
20
23.480000
40
1.000000
50
0.000
51
90.000
0
LINE
8
Plan
10
-15.280000
20
24.480000
11
-86.720000
21
24.480000
0
ARC
8
Plan
10
-86.720000
20
23.480000
40
1.000000
50
90.000
51
180.000
0
LINE
8
Plan
10
-87.720000
20
23.480000
11
-87.720000
21
-23.480000
0
ARC
8
Plan
10
-86.720000
20
-23.480000
40
1.000000
50
180.000
51
270.000
0
LINE
8
Docu
10
62.500000
20
-5.100000
11
62.500000
21
5.100000
0
LINE
8
Docu
10
57.400000
20
0.000000
11
67.600000
21
0.000000
0
CIRCLE
8
Plan
10
62.500000
20
0.000000
40
2.550000
0
LINE
8
Docu
10
50.500000
20
-5.100000
11
50.500000
21
5.100000
0
LINE
8
Docu
10
45.400000
20
0.000000
11
55.600000
21
0.000000
0
CIRCLE
8
Plan
10
50.500000
20
0.000000
40
2.550000
0
LINE
8
Docu
10
87.000000
20
-16.000000
11
87.000000
21
16.000000
0
LINE
8
Docu
10
71.000000
20
0.000000
11
103.000000
21
0.000000
0
CIRCLE
8
Plan
10
87.000000
20
0.000000
40
8.000000
0
LINE
8
Docu
10
3.000000
20
-8.000000
11
3.000000
21
8.000000
0
LINE
8
Docu
10
-5.000000
20
0.000000
11
11.000000
21
0.000000
0
CIRCLE
8
Plan
10
3.000000
20
0.000000
40
4.000000
0
LINE
8
Docu
10
23.000000
20
-8.000000
11
23.000000
21
8.000000
0
LINE
8
Docu
10
15.000000
20
0.000000
11
31.000000
21
0.000000
0
CIRCLE
8
Plan
10
23.000000
20
0.000000
40
4.000000
0
LINE
8
Docu
10
87.000000
20
-18.000000
11
87.000000
21
18.000000
0
LINE
8
Docu
10
69.000000
20
0.000000
11
105.000000
21
0.000000
0
CIRCLE
8
Plan
10
87.000000
20
0.000000
40
9.000000
0
TEXT
8
Docu
50
0.000
10
-48.650000
20
0.000000
40
1.000000
1
1,00mm-Flachfräsung
0
TEXT
8
Docu
50
0.000
10
-48.650000
20
-1.200000
40
1.000000
1
Back
0
LINE
8
Docu
10
-48.650000
20
24.750000
11
-48.650000
21
-24.750000
0
LINE
8
Docu
10
-23.900000
20
0.000000
11
-73.400000
21
0.000000
0
LINE
8
Plan
10
-90.900000
20
-27.500000
11
-6.400000
21
-27.500000
0
ARC
8
Plan
10
-6.400000
20
-27.500000
40
0.000000
50
270.000
51
0.000
0
LINE
8
Plan
10
-6.400000
20
-27.500000
11
-6.400000
21
27.500000
0
ARC
8
Plan
10
-6.400000
20
27.500000
40
0.000000
50
0.000
51
90.000
0
LINE
8
Plan
10
-6.400000
20
27.500000
11
-90.900000
21
27.500000
0
ARC
8
Plan
10
-90.900000
20
27.500000
40
0.000000
50
90.000
51
180.000
0
LINE
8
Plan
10
-90.900000
20
27.500000
11
-90.900000
21
-27.500000
0
ARC
8
Plan
10
-90.900000
20
-27.500000
40
0.000000
50
180.000
51
270.000
0
ARC
8
Plan
10
108.148715
20
-33.000000
40
2.000000
50
270.000
51
321.870
0
ARC
8
Plan
10
-108.148714
20
-33.000000
40
2.000000
50
218.130
51
270.000
0
ARC
8
Plan
10
108.148715
20
33.000000
40
2.000000
50
38.130
51
90.000
0
ARC
8
Plan
10
-78.847477
20
10.000000
40
39.250000
50
141.870
51
146.877
0
LINE
8
Plan
10
108.148715
20
-35.000000
11
-108.148714
21
-35.000000
0
ARC
8
Plan
10
78.847478
20
10.000000
40
39.250000
50
33.123
51
38.130
0
ARC
8
Plan
10
-78.847477
20
-10.000000
40
39.250000
50
213.123
51
218.130
0
ARC
8
Plan
10
-55.756911
20
0.000000
40
64.193088
50
150.667
51
209.333
0
LINE
8
Plan
10
-108.148714
20
35.000000
11
108.148715
21
35.000000
0
ARC
8
Plan
10
55.756912
20
0.000000
40
64.193088
50
330.667
51
29.333
0
ARC
8
Plan
10
78.847478
20
-10.000000
40
39.250000
50
321.870
51
326.877
0
LINE
8
Docu
10
-103.099999
20
-26.140000
11
-125.500000
21
-26.140000
0
LINE
8
Docu
10
-124.000000
20
-26.140000
11
-124.000000
21
26.140000
0
LINE
8
Docu
10
-103.099999
20
26.140000
11
-125.500000
21
26.140000
0
LINE
8
Docu
10
-124.000000
20
-26.140000
11
-124.500000
21
-24.140000
0
LINE
8
Docu
10
-124.500000
20
-24.140000
11
-123.500000
21
-24.140000
0
LINE
8
Docu
10
-123.500000
20
-24.140000
11
-124.000000
21
-26.140000
0
LINE
8
Docu
10
-124.000000
20
26.140000
11
-124.500000
21
24.140000
0
LINE
8
Docu
10
-124.500000
20
24.140000
11
-123.500000
21
24.140000
0
LINE
8
Docu
10
-123.500000
20
24.140000
11
-124.000000
21
26.140000
0
TEXT
8
Docu
50
90.000
10
-124.600000
20
-2.257500
40
1.500000
1
52,28
0
LINE
8
Docu
10
103.100001
20
26.140000
11
103.100001
21
44.500000
0
LINE
8
Docu
10
103.100001
20
43.000000
11
-103.099999
21
43.000000
0
LINE
8
Docu
10
-103.099999
20
26.140000
11
-103.099999
21
44.500000
0
LINE
8
Docu
10
103.100001
20
43.000000
11
101.100001
21
42.500000
0
LINE
8
Docu
10
101.100001
20
42.500000
11
101.100001
21
43.500000
0
LINE
8
Docu
10
101.100001
20
43.500000
11
103.100001
21
43.000000
0
LINE
8
Docu
10
-103.099999
20
43.000000
11
-101.099999
21
42.500000
0
LINE
8
Docu
10
-101.099999
20
42.500000
11
-101.099999
21
43.500000
0
LINE
8
Docu
10
-101.099999
20
43.500000
11
-103.099999
21
43.000000
0
TEXT
8
Docu
50
0.000
10
-2.257499
20
43.600000
40
1.500000
1
206,2
0
LINE
8
Docu
10
103.100001
20
-26.140000
11
103.100001
21
-44.500000
0
LINE
8
Docu
10
103.100001
20
-43.000000
11
-103.099999
21
-43.000000
0
LINE
8
Docu
10
-103.099999
20
-26.140000
11
-103.099999
21
-44.500000
0
LINE
8
Docu
10
103.100001
20
-43.000000
11
101.100001
21
-43.500000
0
LINE
8
Docu
10
101.100001
20
-43.500000
11
101.100001
21
-42.500000
0
LINE
8
Docu
10
101.100001
20
-42.500000
11
103.100001
21
-43.000000
0
LINE
8
Docu
10
-103.099999
20
-43.000000
11
-101.099999
21
-43.500000
0
LINE
8
Docu
10
-101.099999
20
-43.500000
11
-101.099999
21
-42.500000
0
LINE
8
Docu
10
-101.099999
20
-42.500000
11
-103.099999
21
-43.000000
0
TEXT
8
Docu
50
0.000
10
-2.257499
20
-42.400000
40
1.500000
1
206,2
0
LINE
8
Docu
10
103.100001
20
-26.140000
11
125.500000
21
-26.140000
0
LINE
8
Docu
10
124.000000
20
-26.140000
11
124.000000
21
26.140000
0
LINE
8
Docu
10
103.100001
20
26.140000
11
125.500000
21
26.140000
0
LINE
8
Docu
10
124.000000
20
-26.140000
11
123.500000
21
-24.140000
0
LINE
8
Docu
10
123.500000
20
-24.140000
11
124.500000
21
-24.140000
0
LINE
8
Docu
10
124.500000
20
-24.140000
11
124.000000
21
-26.140000
0
LINE
8
Docu
10
124.000000
20
26.140000
11
123.500000
21
24.140000
0
LINE
8
Docu
10
123.500000
20
24.140000
11
124.500000
21
24.140000
0
LINE
8
Docu
10
124.500000
20
24.140000
11
124.000000
21
26.140000
0
TEXT
8
Docu
50
90.000
10
123.400000
20
-2.257500
40
1.500000
1
52,28
0
ARC
8
Plan
10
-108.148714
20
33.000000
40
2.000000
50
90.000
51
141.870
0
ENDSEC
0
EOF
