<?xml version="1.0" encoding="UTF-8" standalone="no"?>
<!-- Created with Inkscape (http://www.inkscape.org/) -->

<svg
   xmlns:dc="http://purl.org/dc/elements/1.1/"
   xmlns:cc="http://creativecommons.org/ns#"
   xmlns:rdf="http://www.w3.org/1999/02/22-rdf-syntax-ns#"
   xmlns:svg="http://www.w3.org/2000/svg"
   xmlns="http://www.w3.org/2000/svg"
   xmlns:sodipodi="http://sodipodi.sourceforge.net/DTD/sodipodi-0.dtd"
   xmlns:inkscape="http://www.inkscape.org/namespaces/inkscape"
   width="210mm"
   height="297mm"
   viewBox="0 0 744.09448819 1052.3622047"
   id="svg2"
   version="1.1"
   inkscape:version="0.91 r13725"
   sodipodi:docname="Logo_7.svg">
  <defs
     id="defs4" />
  <sodipodi:namedview
     id="base"
     pagecolor="#ffffff"
     bordercolor="#666666"
     borderopacity="1.0"
     inkscape:pageopacity="0.0"
     inkscape:pageshadow="2"
     inkscape:zoom="9.6314827"
     inkscape:cx="112.48112"
     inkscape:cy="839.38936"
     inkscape:document-units="px"
     inkscape:current-layer="layer1"
     showgrid="false"
     inkscape:window-width="1920"
     inkscape:window-height="1138"
     inkscape:window-x="-8"
     inkscape:window-y="-8"
     inkscape:window-maximized="1" />
  <metadata
     id="metadata7">
    <rdf:RDF>
      <cc:Work
         rdf:about="">
        <dc:format>image/svg+xml</dc:format>
        <dc:type
           rdf:resource="http://purl.org/dc/dcmitype/StillImage" />
        <dc:title></dc:title>
      </cc:Work>
    </rdf:RDF>
  </metadata>
  <g
     inkscape:label="Ebene 1"
     inkscape:groupmode="layer"
     id="layer1">
    <g
       id="g3399">
      <path
         id="path3357"
         d="M 88.613281 183.24609 C 85.753192 183.24609 83.026099 183.8125 80.435547 184.94531 C 77.85997 186.07813 75.936877 187.51042 74.664062 189.24219 C 73.391248 190.97396 72.753906 192.84245 72.753906 194.84766 C 72.753906 196.41016 73.158186 197.72526 73.966797 198.79297 C 74.595718 199.61328 75.314436 200.02344 76.123047 200.02344 C 76.452482 200.02344 76.730464 199.92578 76.955078 199.73047 C 77.194667 199.52213 77.314453 199.28125 77.314453 199.00781 C 77.314453 198.78647 77.246097 198.57813 77.111328 198.38281 C 76.976559 198.1875 76.6172 197.875 76.033203 197.44531 C 74.880182 196.57292 74.304688 195.53125 74.304688 194.32031 C 74.304688 192.71875 74.865209 191.1888 75.988281 189.73047 C 77.111353 188.25912 78.796825 187.02864 81.042969 186.03906 C 83.289112 185.04948 85.58849 184.55469 87.939453 184.55469 C 89.78129 184.55469 91.2337 184.94532 92.296875 185.72656 C 93.375024 186.50782 93.914062 187.5039 93.914062 188.71484 C 93.914062 190.27734 93.246775 191.63151 91.914062 192.77734 C 90.581351 193.91016 88.979209 194.47656 87.107422 194.47656 C 86.613271 194.47656 86.007828 194.41146 85.289062 194.28125 L 86.972656 188.51953 C 87.257168 187.55599 87.490231 186.82682 87.669922 186.33203 C 85.558547 186.8008 83.744825 187.04169 82.232422 187.05469 L 81.941406 187.99219 C 82.495455 187.97917 82.861324 188.03125 83.041016 188.14844 C 83.235681 188.26562 83.333984 188.44141 83.333984 188.67578 C 83.333984 188.92318 83.139331 189.74349 82.75 191.13672 L 79.605469 202.05469 C 79.201163 203.46094 78.623715 204.44401 77.875 205.00391 C 77.380849 205.35547 76.311234 205.71355 74.664062 206.07812 L 74.326172 207.17188 C 75.898472 206.87239 77.284478 206.72266 78.482422 206.72266 C 79.141291 206.72266 79.971332 206.76823 80.974609 206.85938 C 82.112655 206.95052 82.974596 206.99609 83.558594 206.99609 C 84.112642 206.99609 84.891254 206.90495 85.894531 206.72266 L 86.119141 205.76562 C 85.145811 205.96094 84.328791 206.05859 83.669922 206.05859 C 83.235668 206.05859 82.660172 206.01302 81.941406 205.92188 L 84.951172 195.55078 C 85.205734 195.52471 85.400387 195.51172 85.535156 195.51172 L 86.097656 195.55078 C 86.232425 195.86327 86.568347 196.8138 87.107422 198.40234 C 88.005879 201.00652 88.688141 202.79688 89.152344 203.77344 C 90.08075 205.72656 91.165336 207.39974 92.408203 208.79297 C 93.666043 210.1862 94.953747 211.18879 96.271484 211.80078 C 96.782214 212.03531 97.305661 212.20887 97.833984 212.35352 C 97.551114 213.82201 95.673493 218.77884 92.160156 227.31641 C 88.339181 236.58615 86.429688 241.50644 86.429688 242.07617 L 90.916016 242.07617 C 90.916016 240.9675 91.835437 237.72751 93.671875 232.35352 L 106.49023 232.35352 C 108.35629 237.8045 109.28906 241.04449 109.28906 242.07617 L 113.97656 242.07617 C 113.97656 241.22927 112.15497 236.2325 108.51172 227.08594 C 105.10199 218.52567 103.3084 213.62181 103.08984 212.27734 C 103.55723 212.10602 103.99663 211.90015 104.38086 211.625 C 105.39911 210.89583 105.9082 210.1276 105.9082 209.32031 C 105.9082 209.00781 105.77996 208.74088 105.52539 208.51953 C 105.2858 208.29817 104.98633 208.1875 104.62695 208.1875 C 104.26757 208.1875 103.94662 208.30469 103.66211 208.53906 C 103.45247 208.70834 103.22787 209.15103 102.98828 209.86719 C 102.58397 210.99999 101.66214 211.56641 100.22461 211.56641 C 98.832004 211.56641 97.537788 210.98047 96.339844 209.80859 C 94.722621 208.20703 93.156935 205.44662 91.644531 201.52734 C 91.000637 199.86068 90.521491 198.67578 90.207031 197.97266 C 90.012366 197.556 89.571631 196.7487 88.882812 195.55078 C 91.653056 195.16015 93.824183 194.27474 95.396484 192.89453 C 96.983758 191.51432 97.777344 190.02344 97.777344 188.42188 C 97.777344 186.71615 96.915403 185.42709 95.193359 184.55469 C 93.471316 183.68229 91.278705 183.24609 88.613281 183.24609 z M 100.00195 214.91406 L 100.24609 214.91406 C 100.24609 215.4838 101.98645 220.2874 105.4668 229.32617 L 94.603516 229.32617 C 98.202342 220.19501 100.00195 215.3914 100.00195 214.91406 z "
         style="font-style:italic;font-variant:normal;font-weight:normal;font-stretch:normal;font-size:medium;line-height:125%;font-family:'Monotype Corsiva';-inkscape-font-specification:'Monotype Corsiva, Italic';text-align:start;letter-spacing:0px;word-spacing:0px;writing-mode:lr-tb;text-anchor:start;fill:#000000;fill-opacity:1;stroke:none;stroke-width:1px;stroke-linecap:butt;stroke-linejoin:miter;stroke-opacity:1" />
      <path
         d="m 115.20674,189.96425 1.48245,-0.27344 -1.68461,4.94141 q -1.01076,2.94922 -1.90921,6.79688 -0.49416,2.08984 -0.49416,2.69531 0,0.60547 0.56154,0.60547 0.35938,0 1.14553,-0.41016 1.39261,-0.72266 2.67292,-1.79688 l 0.71876,0.76173 q -2.5606,2.03124 -3.27937,2.46093 -1.43753,0.85937 -2.74029,1.26953 -0.85354,0.27343 -1.66215,0.27343 -0.584,0 -0.87599,-0.23437 -0.292,-0.23437 -0.292,-0.68359 0,-0.29297 0.17969,-0.80078 l 0.89846,-2.65625 q -1.93169,2.01172 -4.6046,3.45703 -1.63968,0.89844 -3.00983,0.89844 -1.30276,0 -1.99907,-0.80078 -0.94338,-1.07423 -0.94338,-2.81251 0,-2.0703 1.25784,-4.60937 1.2803,-2.53907 3.41414,-4.60937 2.13383,-2.07032 4.49229,-3.04688 1.81938,-0.74219 4.67197,-0.74219 0.71877,0 1.46,0.0781 l 0.53907,-0.76173 z m -2.78522,2.98828 q -1.21292,-0.21484 -2.04399,-0.21484 -2.02152,0 -3.52644,0.97656 -1.50492,0.95703 -2.80768,3.47656 -1.2803,2.50001 -1.2803,5 0,1.32813 0.51661,1.91406 0.51661,0.58594 1.34769,0.58594 1.54983,0 3.32428,-1.44531 1.77446,-1.46484 2.60553,-4.19922 l 1.8643,-6.09375 z"
         style="font-style:italic;font-variant:normal;font-weight:normal;font-stretch:normal;font-size:medium;line-height:125%;font-family:'Monotype Corsiva';-inkscape-font-specification:'Monotype Corsiva, Italic';text-align:start;letter-spacing:0px;word-spacing:0px;writing-mode:lr-tb;text-anchor:start;fill:#000000;fill-opacity:1;stroke:none;stroke-width:1px;stroke-linecap:butt;stroke-linejoin:miter;stroke-opacity:1"
         id="path3359"
         inkscape:connector-curvature="0" />
      <path
         d="m 129.06545,190.27675 q 1.99907,0 3.07721,0.6836 1.10062,0.66405 1.10062,1.54297 0,0.52733 -0.4717,0.91796 -0.44922,0.39062 -1.1006,0.39062 -0.42677,0 -0.74123,-0.15624 -0.31447,-0.17579 -0.89846,-0.83985 -1.10061,-1.26953 -2.17876,-1.26953 -0.92092,0 -1.63969,0.625 -0.6963,0.60547 -0.6963,1.52344 0,0.80078 0.44922,1.56249 0.44924,0.7422 2.26862,2.42188 2.49321,2.30469 2.49321,4.375 0,2.07032 -2.02153,3.63281 -2.02153,1.54298 -5.21105,1.54298 -2.67291,0 -3.97568,-0.93751 -1.30276,-0.95703 -1.30276,-2.34375 0,-0.68359 0.49416,-1.13281 0.49415,-0.44922 1.21292,-0.44922 0.62891,0 1.07814,0.3711 0.44923,0.35156 0.44923,0.83984 0,0.19531 -0.0449,0.50782 -0.0224,0.25389 -0.0224,0.42968 0,0.64453 0.62892,1.09375 0.60645,0.44922 1.66215,0.44922 1.21292,0 2.13383,-0.35156 0.92092,-0.3711 1.43753,-1.09375 0.51662,-0.74219 0.51662,-1.46485 0,-0.70313 -0.49416,-1.40625 -0.47168,-0.70312 -2.15629,-2.32422 -2.33599,-2.26562 -2.33599,-4.35547 0,-1.91405 1.77445,-3.33984 1.77446,-1.44531 4.51475,-1.44531 z"
         style="font-style:italic;font-variant:normal;font-weight:normal;font-stretch:normal;font-size:medium;line-height:125%;font-family:'Monotype Corsiva';-inkscape-font-specification:'Monotype Corsiva, Italic';text-align:start;letter-spacing:0px;word-spacing:0px;writing-mode:lr-tb;text-anchor:start;fill:#000000;fill-opacity:1;stroke:none;stroke-width:1px;stroke-linecap:butt;stroke-linejoin:miter;stroke-opacity:1"
         id="path3361"
         inkscape:connector-curvature="0" />
      <path
         id="path3363"
         d="M 140.9707 190.19922 C 139.9824 190.19922 138.81449 190.53777 137.4668 191.21484 C 136.11911 191.89193 134.76305 192.9401 133.40039 194.35938 L 134.27734 195.14062 C 136.13415 193.46094 137.39191 192.62109 138.05078 192.62109 C 138.42513 192.62109 138.61133 192.79037 138.61133 193.12891 C 138.61133 193.44141 138.23049 194.97786 137.4668 197.73828 L 133.64648 211.66602 C 133.18418 211.61952 132.72699 211.58789 132.28125 211.58789 C 127.45319 211.58789 123.61028 213.18171 120.75195 216.36914 C 117.89363 219.54118 116.46484 223.32244 116.46484 227.71094 C 116.46484 231.89926 117.74451 235.44715 120.30664 238.35742 C 122.86876 241.25229 126.69834 242.70117 131.79297 242.70117 C 133.94042 242.70117 135.92447 242.41544 137.74609 241.8457 L 138.03516 238.4043 C 135.73961 239.06642 133.87407 239.39648 132.4375 239.39648 C 128.67576 239.39648 125.72834 238.18097 123.5957 235.74805 C 121.46307 233.31512 120.39648 230.39715 120.39648 226.99414 C 120.39648 223.65272 121.32258 220.82731 123.17383 218.51758 C 125.02507 216.20784 127.74215 215.05273 131.32617 215.05273 C 132.65906 215.05273 134.17771 215.33043 135.88086 215.88477 L 136.39062 212.86523 L 138.27539 206.50781 C 139.35354 207.01562 140.43162 207.26953 141.50977 207.26953 C 144.25006 207.26953 146.7506 205.85027 149.01172 203.01172 C 151.27283 200.17318 152.40234 197.17838 152.40234 194.02734 C 152.40234 192.76432 152.14129 191.82031 151.61719 191.19531 C 151.0931 190.57031 150.44924 190.25781 149.68555 190.25781 C 148.51756 190.25781 147.22986 190.65495 145.82227 191.44922 C 144.98371 191.91797 143.41802 193.14844 141.12695 195.14062 C 141.63608 193.65625 141.93549 192.71875 142.02539 192.32812 C 142.13021 191.92448 142.18359 191.53385 142.18359 191.15625 C 142.18359 190.84375 142.07031 190.60938 141.8457 190.45312 C 141.63605 190.28383 141.34506 190.19922 140.9707 190.19922 z M 147.10156 192.85547 C 147.74546 192.85547 148.25455 193.05079 148.62891 193.44141 C 149.01824 193.81902 149.21289 194.3789 149.21289 195.12109 C 149.21289 197.4388 148.53258 199.81511 147.16992 202.25 C 145.82223 204.6849 144.25003 205.90234 142.45312 205.90234 C 141.21026 205.90234 139.99742 205.38802 138.81445 204.35938 L 140.00391 200.12109 C 140.46812 198.45442 140.96223 197.28256 141.48633 196.60547 C 142.22007 195.66798 143.28317 194.72397 144.67578 193.77344 C 145.57423 193.16147 146.3828 192.85547 147.10156 192.85547 z "
         style="font-style:italic;font-variant:normal;font-weight:normal;font-stretch:normal;font-size:medium;line-height:125%;font-family:'Monotype Corsiva';-inkscape-font-specification:'Monotype Corsiva, Italic';text-align:start;letter-spacing:0px;word-spacing:0px;writing-mode:lr-tb;text-anchor:start;fill:#000000;fill-opacity:1;stroke:none;stroke-width:1px;stroke-linecap:butt;stroke-linejoin:miter;stroke-opacity:1" />
      <path
         sodipodi:nodetypes="cccscscscscccscscsscc"
         d="m 154.87363,194.82753 -0.9883,-0.66407 c 1.49743,-1.43229 2.86009,-2.44791 4.08798,-3.04687 1.24287,-0.61197 2.29855,-0.91796 3.16706,-0.91796 0.47917,0 0.84604,0.0911 1.10061,0.27343 0.25457,0.18229 0.38185,0.42969 0.38185,0.74218 0,0.37761 -0.48667,1.97917 -1.46,4.80469 -1.58727,4.6224 -2.3809,7.40886 -2.3809,8.35938 0,0.18229 0.0524,0.33854 0.15722,0.46875 0.10482,0.11719 0.21713,0.17579 0.33692,0.17579 0.47917,0 1.70707,-0.8073 3.68368,-2.42189 l 0.876,0.74219 c -2.05148,1.67969 -3.54891,2.75391 -4.4923,3.22266 -0.94337,0.46875 -1.71455,0.70313 -2.31352,0.70313 -0.5241,0 -0.94338,-0.14323 -1.25785,-0.42969 -0.29948,-0.28646 -0.44922,-0.6836 -0.44922,-1.19141 0,-1.62761 1.12307,-5.60547 3.36921,-11.93359 0.10482,-0.29948 0.15723,-0.56641 0.15723,-0.80079 0,-0.26041 -0.13477,-0.39062 -0.4043,-0.39062 -0.29949,0 -0.6439,0.10417 -1.03323,0.3125 -0.37435,0.20834 -1.2204,0.8724 -2.53814,1.99219 z"
         style="font-style:italic;font-variant:normal;font-weight:normal;font-stretch:normal;font-size:medium;line-height:125%;font-family:'Monotype Corsiva';-inkscape-font-specification:'Monotype Corsiva, Italic';text-align:start;letter-spacing:0px;word-spacing:0px;writing-mode:lr-tb;text-anchor:start;fill:#000000;fill-opacity:1;stroke:none;stroke-width:1px;stroke-linecap:butt;stroke-linejoin:miter;stroke-opacity:1"
         id="path3365"
         inkscape:connector-curvature="0" />
      <path
         d="m 83.985707,225.95461 q 0,6.55965 -4.043125,11.50249 -4.02091,4.94284 -11.107488,4.94284 -2.310358,0 -7.708596,-0.32337 0.333224,-7.16018 0.333224,-15.7986 0,-8.13027 -0.333224,-14.27417 l 2.443647,0 q 0.888599,0 2.710227,-0.0693 1.821628,-0.0692 2.399217,-0.0692 7.841886,0 11.574002,4.01893 3.732116,3.99585 3.732116,10.07046 z m -3.865406,1.03938 q 0,-5.12762 -3.154526,-8.56912 -3.132312,-3.44151 -9.707945,-3.44151 -0.933028,0 -2.554721,0.23097 0.17772,5.38169 0.17772,11.06364 0,6.23629 0.244364,12.65736 1.777198,0.36956 3.421106,0.36956 5.864754,0 8.708271,-3.6032 2.865731,-3.62628 2.865731,-8.7077 z"
         style="font-style:normal;font-variant:normal;font-weight:normal;font-stretch:normal;font-size:medium;line-height:125%;font-family:Candara;-inkscape-font-specification:'Candara, Normal';text-align:start;letter-spacing:0px;word-spacing:0px;writing-mode:lr-tb;text-anchor:start;fill:#000000;fill-opacity:1;stroke:none;stroke-width:1px;stroke-linecap:butt;stroke-linejoin:miter;stroke-opacity:1"
         id="path3385"
         inkscape:connector-curvature="0" />
    </g>
  </g>
</svg>
