0
SECTION
2
HEADER
9
$EXTMAX
10
119.950000
20
35.000000
9
$EXTMIN
10
-119.949999
20
-35.000000
0
ENDSEC
0
SECTION
2
TABLES
0
TABLE
2
LAYER
70
2
0
LAYER
2
Plan
70
0
62
253
6
CONTINUOUS
0
LAYER
2
Docu
70
0
62
11
6
CONTINUOUS
0
ENDTAB
0
ENDSEC
0
SECTION
2
ENTITIES
0
LINE
8
Docu
10
46.750000
20
-24.000000
11
46.750000
21
-4.000000
0
LINE
8
Docu
10
36.750000
20
-14.000000
11
56.750000
21
-14.000000
0
CIRCLE
8
Plan
10
46.750000
20
-14.000000
40
5.000000
0
TEXT
8
Docu
50
0.000
10
-5.500000
20
17.000000
40
1.000000
1
Ausbruch
0
TEXT
8
Docu
50
0.000
10
-5.500000
20
15.800000
40
1.000000
1
Front
0
LINE
8
Docu
10
-5.500000
20
21.275000
11
-5.500000
21
12.725000
0
LINE
8
Docu
10
-1.225000
20
17.000000
11
-9.775000
21
17.000000
0
LINE
8
Plan
10
-11.500000
20
12.250000
11
0.500000
21
12.250000
0
ARC
8
Plan
10
0.500000
20
13.250000
40
1.000000
50
270.000
51
0.000
0
LINE
8
Plan
10
1.500000
20
13.250000
11
1.500000
21
20.750000
0
ARC
8
Plan
10
0.500000
20
20.750000
40
1.000000
50
0.000
51
90.000
0
LINE
8
Plan
10
0.500000
20
21.750000
11
-11.500000
21
21.750000
0
ARC
8
Plan
10
-11.500000
20
20.750000
40
1.000000
50
90.000
51
180.000
0
LINE
8
Plan
10
-12.500000
20
20.750000
11
-12.500000
21
13.250000
0
ARC
8
Plan
10
-11.500000
20
13.250000
40
1.000000
50
180.000
51
270.000
0
TEXT
8
Docu
50
0.000
10
10.000000
20
17.000000
40
1.000000
1
Ausbruch
0
TEXT
8
Docu
50
0.000
10
10.000000
20
15.800000
40
1.000000
1
Front
0
LINE
8
Docu
10
10.000000
20
21.275000
11
10.000000
21
12.725000
0
LINE
8
Docu
10
14.275000
20
17.000000
11
5.725000
21
17.000000
0
LINE
8
Plan
10
4.000000
20
12.250000
11
16.000000
21
12.250000
0
ARC
8
Plan
10
16.000000
20
13.250000
40
1.000000
50
270.000
51
0.000
0
LINE
8
Plan
10
17.000000
20
13.250000
11
17.000000
21
20.750000
0
ARC
8
Plan
10
16.000000
20
20.750000
40
1.000000
50
0.000
51
90.000
0
LINE
8
Plan
10
16.000000
20
21.750000
11
4.000000
21
21.750000
0
ARC
8
Plan
10
4.000000
20
20.750000
40
1.000000
50
90.000
51
180.000
0
LINE
8
Plan
10
3.000000
20
20.750000
11
3.000000
21
13.250000
0
ARC
8
Plan
10
4.000000
20
13.250000
40
1.000000
50
180.000
51
270.000
0
TEXT
8
Docu
50
0.000
10
-69.250000
20
19.550000
40
1.000000
1
Ausbruch
0
TEXT
8
Docu
50
0.000
10
-69.250000
20
18.350000
40
1.000000
1
Front
0
LINE
8
Docu
10
-69.250000
20
26.075000
11
-69.250000
21
13.025000
0
LINE
8
Docu
10
-62.725000
20
19.550000
11
-75.775000
21
19.550000
0
LINE
8
Plan
10
-76.750000
20
12.300000
11
-61.750000
21
12.300000
0
ARC
8
Plan
10
-61.750000
20
13.300000
40
1.000000
50
270.000
51
0.000
0
LINE
8
Plan
10
-60.750000
20
13.300000
11
-60.750000
21
25.800000
0
ARC
8
Plan
10
-61.750000
20
25.800000
40
1.000000
50
0.000
51
90.000
0
LINE
8
Plan
10
-61.750000
20
26.800000
11
-76.750000
21
26.800000
0
ARC
8
Plan
10
-76.750000
20
25.800000
40
1.000000
50
90.000
51
180.000
0
LINE
8
Plan
10
-77.750000
20
25.800000
11
-77.750000
21
13.300000
0
ARC
8
Plan
10
-76.750000
20
13.300000
40
1.000000
50
180.000
51
270.000
0
LINE
8
Docu
10
64.750000
20
-24.000000
11
64.750000
21
-4.000000
0
LINE
8
Docu
10
54.750000
20
-14.000000
11
74.750000
21
-14.000000
0
CIRCLE
8
Plan
10
64.750000
20
-14.000000
40
5.000000
0
TEXT
8
Docu
50
0.000
10
90.000000
20
-14.000000
40
1.000000
1
D-Ausbruch
0
LINE
8
Docu
10
90.000000
20
-9.005000
11
90.000000
21
-18.995000
0
LINE
8
Docu
10
94.995000
20
-14.000000
11
85.005000
21
-14.000000
0
LINE
8
Plan
10
94.950000
20
-11.490020
11
94.950000
21
-16.509980
0
LINE
8
Plan
10
85.050000
20
-11.490020
11
85.050000
21
-16.509980
0
ARC
8
Plan
10
90.000000
20
-14.000000
40
5.550000
50
26.888
51
153.112
0
ARC
8
Plan
10
90.000000
20
-14.000000
40
5.550000
50
206.888
51
333.112
0
TEXT
8
Docu
50
0.000
10
-103.100000
20
26.140000
40
1.000000
1
M3-SenkBohrung (A)
0
LINE
8
Docu
10
-103.100000
20
23.040000
11
-103.100000
21
29.240000
0
LINE
8
Docu
10
-106.200000
20
26.140000
11
-100.000000
21
26.140000
0
CIRCLE
8
Plan
10
-103.100000
20
26.140000
40
1.550000
0
CIRCLE
8
Plan
10
-103.100000
20
26.140000
40
3.000000
0
TEXT
8
Docu
50
0.000
10
-103.100000
20
-26.140000
40
1.000000
1
M3-SenkBohrung (A)
0
LINE
8
Docu
10
-103.100000
20
-29.240000
11
-103.100000
21
-23.040000
0
LINE
8
Docu
10
-106.200000
20
-26.140000
11
-100.000000
21
-26.140000
0
CIRCLE
8
Plan
10
-103.100000
20
-26.140000
40
1.550000
0
CIRCLE
8
Plan
10
-103.100000
20
-26.140000
40
3.000000
0
TEXT
8
Docu
50
0.000
10
103.100000
20
-26.140000
40
1.000000
1
M3-SenkBohrung (A)
0
LINE
8
Docu
10
103.100000
20
-29.240000
11
103.100000
21
-23.040000
0
LINE
8
Docu
10
100.000000
20
-26.140000
11
106.200000
21
-26.140000
0
CIRCLE
8
Plan
10
103.100000
20
-26.140000
40
1.550000
0
CIRCLE
8
Plan
10
103.100000
20
-26.140000
40
3.000000
0
TEXT
8
Docu
50
0.000
10
103.100000
20
26.140000
40
1.000000
1
M3-SenkBohrung (A)
0
LINE
8
Docu
10
103.100000
20
23.040000
11
103.100000
21
29.240000
0
LINE
8
Docu
10
100.000000
20
26.140000
11
106.200000
21
26.140000
0
CIRCLE
8
Plan
10
103.100000
20
26.140000
40
1.550000
0
CIRCLE
8
Plan
10
103.100000
20
26.140000
40
3.000000
0
LINE
8
Docu
10
25.000000
20
9.350000
11
25.000000
21
29.350000
0
LINE
8
Docu
10
15.000000
20
19.350000
11
35.000000
21
19.350000
0
CIRCLE
8
Plan
10
25.000000
20
19.350000
40
5.000000
0
LINE
8
Docu
10
39.000000
20
9.350000
11
39.000000
21
29.350000
0
LINE
8
Docu
10
29.000000
20
19.350000
11
49.000000
21
19.350000
0
CIRCLE
8
Plan
10
39.000000
20
19.350000
40
5.000000
0
LINE
8
Docu
10
72.500000
20
9.350000
11
72.500000
21
29.350000
0
LINE
8
Docu
10
62.500000
20
19.350000
11
82.500000
21
19.350000
0
CIRCLE
8
Plan
10
72.500000
20
19.350000
40
5.000000
0
TEXT
8
Docu
50
0.000
10
-50.500000
20
20.950000
40
1.000000
1
Ausbruch
0
TEXT
8
Docu
50
0.000
10
-50.500000
20
19.750000
40
1.000000
1
Front
0
LINE
8
Docu
10
-50.500000
20
28.375000
11
-50.500000
21
13.525000
0
LINE
8
Docu
10
-43.075000
20
20.950000
11
-57.925000
21
20.950000
0
LINE
8
Plan
10
-57.750000
20
12.450000
11
-43.250000
21
12.450000
0
ARC
8
Plan
10
-43.250000
20
13.450000
40
1.000000
50
270.000
51
0.000
0
LINE
8
Plan
10
-42.250000
20
13.450000
11
-42.250000
21
28.450000
0
ARC
8
Plan
10
-43.250000
20
28.450000
40
1.000000
50
0.000
51
90.000
0
LINE
8
Plan
10
-43.250000
20
29.450000
11
-57.750000
21
29.450000
0
ARC
8
Plan
10
-57.750000
20
28.450000
40
1.000000
50
90.000
51
180.000
0
LINE
8
Plan
10
-58.750000
20
28.450000
11
-58.750000
21
13.450000
0
ARC
8
Plan
10
-57.750000
20
13.450000
40
1.000000
50
180.000
51
270.000
0
TEXT
8
Docu
50
0.000
10
-32.500000
20
20.950000
40
1.000000
1
Ausbruch
0
TEXT
8
Docu
50
0.000
10
-32.500000
20
19.750000
40
1.000000
1
Front
0
LINE
8
Docu
10
-32.500000
20
28.375000
11
-32.500000
21
13.525000
0
LINE
8
Docu
10
-25.075000
20
20.950000
11
-39.925000
21
20.950000
0
LINE
8
Plan
10
-39.750000
20
12.450000
11
-25.250000
21
12.450000
0
ARC
8
Plan
10
-25.250000
20
13.450000
40
1.000000
50
270.000
51
0.000
0
LINE
8
Plan
10
-24.250000
20
13.450000
11
-24.250000
21
28.450000
0
ARC
8
Plan
10
-25.250000
20
28.450000
40
1.000000
50
0.000
51
90.000
0
LINE
8
Plan
10
-25.250000
20
29.450000
11
-39.750000
21
29.450000
0
ARC
8
Plan
10
-39.750000
20
28.450000
40
1.000000
50
90.000
51
180.000
0
LINE
8
Plan
10
-40.750000
20
28.450000
11
-40.750000
21
13.450000
0
ARC
8
Plan
10
-39.750000
20
13.450000
40
1.000000
50
180.000
51
270.000
0
ARC
8
Plan
10
-108.148714
20
33.000000
40
2.000000
50
90.000
51
141.870
0
ARC
8
Plan
10
108.148715
20
-33.000000
40
2.000000
50
270.000
51
321.870
0
ARC
8
Plan
10
-108.148714
20
-33.000000
40
2.000000
50
218.130
51
270.000
0
ARC
8
Plan
10
108.148715
20
33.000000
40
2.000000
50
38.130
51
90.000
0
ARC
8
Plan
10
-78.847477
20
10.000000
40
39.250000
50
141.870
51
146.877
0
LINE
8
Plan
10
108.148715
20
-35.000000
11
-108.148714
21
-35.000000
0
ARC
8
Plan
10
78.847478
20
10.000000
40
39.250000
50
33.123
51
38.130
0
ARC
8
Plan
10
-78.847477
20
-10.000000
40
39.250000
50
213.123
51
218.130
0
ARC
8
Plan
10
-55.756911
20
0.000000
40
64.193088
50
150.667
51
209.333
0
LINE
8
Plan
10
-108.148714
20
35.000000
11
108.148715
21
35.000000
0
ARC
8
Plan
10
55.756912
20
0.000000
40
64.193088
50
330.667
51
29.333
0
ARC
8
Plan
10
78.847478
20
-10.000000
40
39.250000
50
321.870
51
326.877
0
ENDSEC
0
EOF
